<svg xmlns="http://www.w3.org/2000/svg" version="1.1" xmlns:xlink="http://www.w3.org/1999/xlink" xmlns:svgjs="http://svgjs.com/svgjs" width="512" height="512" x="0" y="0" viewBox="0 0 1707 1707" style="enable-background:new 0 0 512 512" xml:space="preserve" fill-rule="evenodd" class=""><g><rect width="1386" height="1707" x="160" fill="#f9f9f9" rx="105" ry="129" data-original="#e7e4dd" opacity="1" class=""></rect><g fill="#a8b0bc" fill-rule="nonzero"><path d="M584 340c-23 0-42-19-42-42s19-42 42-42h539c23 0 42 19 42 42s-19 42-42 42zM394 618c-23 0-42-19-42-42s19-42 42-42h918c24 0 42 19 42 42s-18 42-42 42zM394 895c-23 0-42-18-42-42 0-23 19-42 42-42h918c24 0 42 19 42 42 0 24-18 42-42 42zM394 1173c-23 0-42-19-42-42s19-42 42-42h918c24 0 42 19 42 42s-18 42-42 42zM394 1451c-23 0-42-19-42-42 0-24 19-42 42-42h770c23 0 42 18 42 42 0 23-19 42-42 42z" fill="#575757" data-original="#a8b0bc" class="" opacity="1"></path></g></g></svg>