<svg xmlns="http://www.w3.org/2000/svg" version="1.1" xmlns:xlink="http://www.w3.org/1999/xlink" xmlns:svgjs="http://svgjs.com/svgjs" width="512" height="512" x="0" y="0" viewBox="0 0 512 512" style="enable-background:new 0 0 512 512" xml:space="preserve" class=""><g><path fill="#a79ba7" d="M279.455 457.096h-95.121L19.098 367.389 0 242.902l67.713-34.645 71.565-133.949 183.659-19.394 92.02 90.949 68.857 28.31 28.184 187.606z" data-original="#a79ba7" class="" opacity="1"></path><g fill="#7a6d79"><path d="m169.425 189.502 25.651 49.69-40.64 27.45-86.721-58.38 71.567-133.955zM184.331 457.091 19.102 367.394.002 242.907l154.434 23.735 46.727 95.137zM512 361.779l-232.542 95.312-10.97-94.113 67.321-96.336 148.005-92.469z" fill="#7a6d79" data-original="#7a6d79" class="" opacity="1"></path></g><path fill="#918291" d="m414.959 145.859-79.148 120.778-56.351 190.449h-95.127l-29.895-190.449 14.989-77.14L322.944 54.904z" data-original="#918291" class=""></path><path fill="#7a6d79" d="M462.175 230.044c-4.268 0-7.726-3.408-7.726-7.675v-.103a7.726 7.726 0 1 1 15.452 0c0 4.267-3.458 7.778-7.726 7.778zM472.259 255.304a7.725 7.725 0 0 1-7.726-7.726v-.103a7.726 7.726 0 1 1 15.452 0v.103a7.726 7.726 0 0 1-7.726 7.726zM449.376 252.202a7.725 7.725 0 0 1-7.726-7.726v-.103a7.726 7.726 0 1 1 15.452 0v.103a7.725 7.725 0 0 1-7.726 7.726z" data-original="#685e68" class="" opacity="1"></path><path fill="#7a6d79" d="M205.483 203.329a7.726 7.726 0 0 1-7.726-7.726v-.103a7.726 7.726 0 1 1 15.452 0v.103a7.726 7.726 0 0 1-7.726 7.726zM223.271 183.452a7.726 7.726 0 0 1-7.726-7.726v-.103a7.726 7.726 0 1 1 15.452 0v.103a7.726 7.726 0 0 1-7.726 7.726zM231.108 208.274a7.726 7.726 0 0 1-7.726-7.726v-.103a7.726 7.726 0 1 1 15.452 0v.103a7.727 7.727 0 0 1-7.726 7.726z" data-original="#7a6d79" class="" opacity="1"></path><path fill="#7a6d79" d="M44.869 356.038a7.726 7.726 0 0 1-7.726-7.726v-.103a7.726 7.726 0 1 1 15.452 0v.103a7.727 7.727 0 0 1-7.726 7.726zM67.203 369.594c-4.267 0-7.726-3.408-7.726-7.675v-.103a7.726 7.726 0 1 1 15.452 0c0 4.267-3.459 7.778-7.726 7.778zM67.713 345.618c-4.267 0-7.726-3.408-7.726-7.675v-.103a7.726 7.726 0 1 1 15.452 0c0 4.267-3.459 7.778-7.726 7.778z" data-original="#685e68" class="" opacity="1"></path><path fill="#918291" d="M167.506 101.994c-4.267 0-7.726-3.408-7.726-7.675v-.103a7.726 7.726 0 1 1 15.452 0c0 4.268-3.459 7.778-7.726 7.778z" data-original="#918291" class=""></path><path fill="#7a6d79" d="M103.352 208.222a7.726 7.726 0 0 1-7.726-7.726v-.103a7.726 7.726 0 1 1 15.452 0v.103a7.726 7.726 0 0 1-7.726 7.726zM112.933 187.673c-4.267 0-7.726-3.408-7.726-7.675v-.103a7.726 7.726 0 1 1 15.452 0c0 4.267-3.459 7.778-7.726 7.778z" data-original="#685e68" class="" opacity="1"></path></g></svg>