<svg xmlns="http://www.w3.org/2000/svg" version="1.1" xmlns:xlink="http://www.w3.org/1999/xlink" xmlns:svgjs="http://svgjs.com/svgjs" width="512" height="512" x="0" y="0" viewBox="0 0 497 497" style="enable-background:new 0 0 512 512" xml:space="preserve" class=""><g><path fill="#fdf5f5" d="m149.399 336.905-31.993-31.993L392.31 30.007a4.982 4.982 0 0 1 3.114-1.447c1.416-.119 2.166 1.07 3.25 2.154l9.414 9.414c18.328 18.328 4.893 33.195-13.435 51.523z" data-original="#fdf5f5"></path><path fill="#f1ece8" d="m408.795 105.787-245.26 245.26-21.213-21.213 245.26-245.26c15.174-15.174 17.784-38.148 7.835-56.003a4.967 4.967 0 0 1 3.967 1.435l9.412 9.412c18.327 18.328 18.327 48.041-.001 66.369z" data-original="#f1ece8"></path><path fill="#f17474" d="M162.394 341.327c-2.309 2.309-3.385 5.607-2.774 8.815 5.254 27.579-2.78 57.216-24.091 78.527-34.188 34.188-74.981 47.623-109.181 13.435-3.986-3.987-8.214-7.558-11.27-12.06-23.16-34.114-19.639-81.061 10.563-111.263 21.312-21.312 50.951-29.345 78.541-24.1 3.207.61 6.503-.467 8.811-2.775l33.424-33.424c3.905-3.905 10.237-3.905 14.142 0l35.268 35.268c3.905 3.905 3.905 10.237 0 14.142z" data-original="#b5e9f7" class="" opacity="1"></path><path fill="#e37777" d="M149.669 442.808c-34.189 34.189-89.824 34.189-124.026 0a87.877 87.877 0 0 1-10.564-12.77c34.118 23.158 81.056 19.636 111.256-10.564 21.312-21.312 29.352-50.947 24.091-78.524-.608-3.21.467-6.505 2.779-8.818l33.432-33.432c3.903-3.903 3.903-10.239 0-14.142l23.334 23.335c3.903 3.903 3.903 10.239 0 14.142l-33.432 33.432c-2.312 2.312-3.387 5.607-2.779 8.818 5.261 27.576-2.779 57.211-24.091 78.523z" data-original="#8fe0f4" class="" opacity="1"></path><circle cx="87.661" cy="380.793" r="54.572" fill="#faf7f7" data-original="#faf7f7" class=""></circle><path fill="#ded3cf" d="m333.458 351.049 39.064-39.064L97.617 37.079c-1.953-1.953-4.411-1.245-6.364.707l-2.343 2.343c-3.153 3.153-6.471 5.936-8.539 9.647-9.954 17.861-7.344 40.843 7.832 56.019z" data-original="#ded3cf"></path><path fill="#cabfbb" d="m104.687 30.013 274.902 274.902-21.213 21.213L83.474 51.227a4.985 4.985 0 0 0-3.104-1.449 47.01 47.01 0 0 1 7.835-10.352l9.412-9.412a4.994 4.994 0 0 1 7.07-.001z" data-original="#cabfbb"></path><path fill="#f17474" d="M470.651 442.105c-3.989 3.987-7.562 8.216-12.065 11.273-34.114 23.156-81.057 19.634-111.258-10.566-21.311-21.311-29.345-50.949-24.091-78.527.611-3.208-.465-6.506-2.774-8.815l-33.434-33.434c-3.905-3.905-3.905-10.237 0-14.142l35.268-35.268c3.905-3.905 10.237-3.905 14.142 0l33.424 33.424c2.308 2.308 5.605 3.385 8.811 2.775 27.59-5.245 57.229 2.788 78.541 24.1 34.189 34.187 47.624 74.98 13.436 109.18z" data-original="#b5e9f7" class="" opacity="1"></path><path fill="#e37777" d="M471.365 318.782c34.181 34.181 34.181 89.831-.007 124.034a87.123 87.123 0 0 1-12.777 10.557c23.165-34.111 19.643-81.063-10.55-111.256-21.312-21.312-50.954-29.345-78.546-24.098-3.21.608-6.505-.467-8.818-2.779l-33.418-33.418c-3.91-3.91-10.239-3.903-14.142 0l23.335-23.335c3.903-3.903 10.232-3.91 14.142 0l33.418 33.418c2.312 2.312 5.607 3.387 8.818 2.779 27.591-5.247 57.232 2.786 78.545 24.098z" data-original="#8fe0f4" class="" opacity="1"></path><circle cx="409.338" cy="380.794" r="54.572" fill="#faf7f7" data-original="#faf7f7" class=""></circle><path fill="#8e8888" d="M248.5 226.891a7.5 7.5 0 0 1-3.497-14.137c1.044-.551 2.234.137 3.497.137 4.142 0 6.5 2.358 6.5 6.5 0 1.263.688 2.453.137 3.497a7.501 7.501 0 0 1-6.637 4.003z" data-original="#8e8888"></path><path fill="#7f7979" d="M248.5 211.891a7.465 7.465 0 0 0-3.495.867l10.128 10.128a7.5 7.5 0 0 0-6.633-10.995z" data-original="#7f7979" class=""></path></g></svg>