<svg xmlns="http://www.w3.org/2000/svg" version="1.1" xmlns:xlink="http://www.w3.org/1999/xlink" xmlns:svgjs="http://svgjs.com/svgjs" width="512" height="512" x="0" y="0" viewBox="0 0 512 512" style="enable-background:new 0 0 512 512" xml:space="preserve" class=""><g><path d="M356.17 89.283 211.001 445.224c-6.346 15.39-23.719 22.45-38.791 16.342-15.231-6.267-22.529-23.56-16.342-38.791l145.17-356.021c6.187-15.23 23.56-22.529 38.791-16.263 15.23 6.187 22.528 23.56 16.341 38.792zM250.268 50.57c-15.151-6.346-32.603.873-38.871 16.024l-74.012 178.169L63.372 66.594c-6.267-15.151-23.719-22.37-38.871-16.024C9.35 56.837 2.132 74.289 8.398 89.441L109.937 333.77c10.075 24.353 44.82 24.353 54.894 0l101.54-244.329c6.267-15.152-.952-32.604-16.103-38.871zm5.077 34.27-101.46 244.329c-6.108 14.674-26.892 14.674-33 0L19.425 84.84c-3.808-9.043.555-19.514 9.598-23.322 9.043-3.729 19.594.555 23.322 9.678l79.566 191.337c1.824 4.443 9.122 4.443 10.947 0l79.486-191.337c3.808-9.123 14.279-13.407 23.402-9.678 9.043 3.808 13.406 14.279 9.599 23.322zM414.634 281.175c-17.532 0-31.81-14.2-31.81-31.731s14.279-31.81 31.81-31.81h61.479c16.42 0 29.748-13.326 29.748-29.748 0-16.342-13.327-29.748-29.748-29.748h-61.479c-50.373 0-91.306 40.932-91.306 91.306 0 50.293 40.933 91.227 91.306 91.227 17.452 0 31.731 14.279 31.731 31.81s-14.279 31.731-31.731 31.731h-61.558c-16.421 0-29.748 13.406-29.748 29.748 0 16.42 13.327 29.748 29.748 29.748h61.558c50.293 0 91.227-40.933 91.227-91.227s-40.933-91.306-91.227-91.306zm0 170.634h-61.558c-9.837 0-17.849-8.012-17.849-17.849s8.012-17.849 17.849-17.849h61.558c24.036 0 43.63-19.594 43.63-43.63 0-24.116-19.594-43.709-43.63-43.709-43.789 0-79.407-35.539-79.407-79.327s35.618-79.407 79.407-79.407h61.479c9.837 0 17.849 8.012 17.849 17.849s-8.012 17.849-17.849 17.849h-61.479c-24.116 0-43.709 19.594-43.709 43.709 0 24.036 19.594 43.63 43.709 43.63 43.709 0 79.327 35.618 79.327 79.407s-35.618 79.327-79.327 79.327z" fill="#ffffff" data-original="#000000" class="" opacity="1"></path></g></svg>